<?xml version="1.0" encoding="UTF-8" standalone="no"?>
<!DOCTYPE svg PUBLIC "-//W3C//DTD SVG 1.1//EN" "http://www.w3.org/Graphics/SVG/1.1/DTD/svg11.dtd">
<svg width="100%" height="100%" viewBox="0 0 1920 1080" version="1.1" xmlns="http://www.w3.org/2000/svg" xmlns:xlink="http://www.w3.org/1999/xlink" xml:space="preserve" xmlns:serif="http://www.serif.com/" style="fill-rule:evenodd;clip-rule:evenodd;stroke-linejoin:round;stroke-miterlimit:2;">
    <g>
        <g>
            <path d="M150,899.291L150,560.304L195.198,560.304L214.705,624.557L214.705,899.291L150,899.291ZM381.225,899.291C381.225,899.291 338.232,898.934 288.925,798.19C227.976,673.657 182.828,637.403 182.828,637.403L195.198,560.304C195.198,560.304 233.495,560.075 288.925,661.406C353.299,779.088 393.595,816.769 393.595,816.769L381.225,899.291ZM381.225,899.291L362.67,831.518L362.67,560.304L427.85,560.304L427.85,899.291L381.225,899.291Z" style="fill-rule:nonzero;"/>
            <path d="M587.233,899.077C566.934,899.077 548.854,894.795 532.996,886.231C517.453,877.667 505.243,865.773 496.361,850.548C487.48,835.324 483.04,817.72 483.04,797.738L483.04,661.406L545.841,661.406L545.841,796.311C545.841,805.826 547.427,814.073 550.599,821.051C553.771,827.711 558.529,832.787 564.872,836.275C571.215,839.765 578.67,841.509 587.233,841.509C600.237,841.509 610.388,837.544 617.683,829.614C624.978,821.686 628.626,810.584 628.626,796.311L628.626,661.406L690.952,661.406L690.952,797.738C690.952,818.038 686.511,835.799 677.63,851.024C669.066,866.249 656.854,878.143 640.996,886.707C625.453,894.954 607.533,899.077 587.233,899.077Z" style="fill-rule:nonzero;"/>
            <path d="M774.211,899.077L774.211,560.304L836.537,560.304L836.537,899.077L774.211,899.077ZM721.639,717.639L721.639,661.406L891.489,661.406L891.489,717.639L721.639,717.639Z" style="fill-rule:nonzero;"/>
            <path d="M925.507,899.077L925.507,661.406L987.833,661.406L987.833,899.077L925.507,899.077ZM987.833,764.172L963.568,747.996C966.423,719.767 974.669,702.322 988.308,686.146C1001.95,669.652 1021.61,661.406 1047.3,661.406C1058.4,661.406 1068.39,663.309 1077.28,667.115C1086.16,670.604 1094.25,671.714 1101.54,679.961L1062.53,724.683C1059.04,720.877 1054.76,718.022 1049.68,716.119C1044.92,714.216 1039.37,713.265 1033.03,713.265C1019.71,713.265 1008.77,717.547 1000.2,726.111C991.956,734.357 987.833,747.044 987.833,764.172Z" style="fill-rule:nonzero;"/>
            <rect x="1123.43" y="729.798" width="62.802" height="169.279"/>
            <path d="M1490.82,670.921C1490.82,670.921 1500.25,620.64 1513.2,608.971C1525.38,598.002 1543.9,598.481 1555.5,609.718C1555.71,609.92 1545.17,611.738 1537.38,618.021C1533.39,621.247 1528.34,626.067 1524.22,631.769C1516.8,642.008 1511.1,653.638 1511.1,653.638C1511.1,653.638 1518.37,642.582 1526.6,633.14C1530.94,628.161 1535.5,624.062 1539.5,621.331C1548.53,615.169 1558.32,612.838 1558.53,613.116C1568.31,625.817 1566.8,644.13 1554.7,655.036C1541.74,666.706 1490.82,670.921 1490.82,670.921Z" style="fill:rgb(74,127,69);"/>
            <path d="M1248.79,657.837L1248.79,560.304L1472.4,560.304L1472.4,616.945L1313.62,616.945L1313.62,666.342C1306.19,664.402 1292.05,661.272 1278.87,659.737C1263.16,657.905 1248.79,657.837 1248.79,657.837ZM1313.62,724.885L1313.62,899.077L1248.79,899.077L1248.79,716.298C1280.91,716.44 1297.26,720.681 1313.62,724.885Z"/>
            <path d="M1378.44,729.691C1314.21,729.692 1313.02,713.016 1248.79,712.729C1200.69,712.515 1154.83,720.877 1154.83,720.877C1162.57,712.518 1201.67,661.406 1248.79,661.406C1313.34,661.406 1313.89,678.414 1378.44,678.414C1425.26,678.414 1472.4,670.326 1472.4,670.326C1464.69,678.539 1425.18,729.691 1378.44,729.691Z" style="fill-rule:nonzero;"/>
            <rect x="1502.14" y="729.798" width="62.802" height="169.279"/>
            <path d="M1653.91,899.077L1653.91,560.304L1716.24,560.304L1716.24,899.077L1653.91,899.077ZM1600.15,717.639L1600.15,661.406L1770,661.406L1770,717.639L1600.15,717.639Z" style="fill-rule:nonzero;"/>
        </g>
        <g>
            <path d="M959.525,546.031C959.525,546.031 752.421,453.038 715.696,385.07C681.327,321.46 702.117,242.724 761.632,203.927C762.668,203.251 751.922,262.49 802.737,329.019C844.703,383.961 944.603,460.205 944.603,460.205C944.603,460.205 861.617,374.392 820.977,314.934C784.524,261.6 778.458,194.541 779.365,194.122C844.937,163.849 923.718,189.452 958.522,253.866C995.246,321.835 959.525,546.031 959.525,546.031Z" style="fill:rgb(101,170,94);"/>
            <path d="M959.525,546.031C959.525,546.031 924.572,320.981 961.658,252.786C996.518,188.686 1074.95,163.251 1140.31,193.221C1141.48,193.761 1099.95,217.007 1076.59,254.927C1064.6,274.391 1050.58,302.096 1041.68,332.16C1025.72,386.15 1019.04,443.411 1019.04,443.411C1019.04,443.411 1033.15,386.232 1053.69,334.399C1064.53,307.06 1077.62,283.082 1090.37,265.687C1119.13,226.434 1156.77,202.139 1158.08,202.987C1217.95,241.807 1238.78,320.918 1204.13,384.649C1167.04,452.842 959.525,546.031 959.525,546.031Z" style="fill:rgb(74,127,69);"/>
        </g>
    </g>
</svg>
