<?xml version="1.0" encoding="UTF-8" standalone="no"?>
<!DOCTYPE svg PUBLIC "-//W3C//DTD SVG 1.1//EN" "http://www.w3.org/Graphics/SVG/1.1/DTD/svg11.dtd">
<svg width="100%" height="100%" viewBox="0 0 1920 1080" version="1.1" xmlns="http://www.w3.org/2000/svg" xmlns:xlink="http://www.w3.org/1999/xlink" xml:space="preserve" xmlns:serif="http://www.serif.com/" style="fill-rule:evenodd;clip-rule:evenodd;stroke-linecap:round;stroke-miterlimit:1.5;">
    <g>
        <path d="M204.922,604.421L204.922,464.139L150,464.139L150,444.228L282.502,444.228L282.502,464.139L227.578,464.139L227.578,604.421L204.922,604.421Z" style="fill-rule:nonzero;"/>
        <path d="M304.242,604.421L304.242,483.133L326.211,483.133L326.211,604.421L304.242,604.421ZM315.226,459.791C310.956,459.791 307.408,458.418 304.586,455.672C301.763,452.925 300.352,449.569 300.352,445.601C300.352,441.482 301.763,438.049 304.586,435.303C307.408,432.557 310.956,431.184 315.226,431.184C319.498,431.184 323.046,432.519 325.868,435.19C328.691,437.86 330.102,441.178 330.102,445.144C330.102,449.263 328.729,452.734 325.983,455.557C323.237,458.379 319.651,459.791 315.226,459.791Z" style="fill-rule:nonzero;"/>
        <path d="M519.816,481.989C529.578,481.989 538.199,483.896 545.674,487.709C553.15,491.524 558.986,497.32 563.182,505.102C567.378,512.883 569.475,522.724 569.475,534.622L569.475,604.421L547.505,604.421L547.505,537.141C547.505,525.393 544.758,516.545 539.266,510.594C533.774,504.645 526.071,501.669 516.154,501.669C508.831,501.669 502.423,503.195 496.931,506.245C491.439,509.297 487.205,513.797 484.229,519.748C481.255,525.698 479.768,533.096 479.768,541.947L479.768,604.421L457.799,604.421L457.799,537.141C457.799,525.393 455.091,516.545 449.673,510.594C444.257,504.645 436.514,501.669 426.446,501.669C419.275,501.669 412.945,503.195 407.452,506.245C401.96,509.297 397.688,513.797 394.636,519.748C391.586,525.698 390.06,533.096 390.06,541.947L390.06,604.421L368.091,604.421L368.091,483.133L389.144,483.133L389.144,515.4L385.711,507.161C389.526,499.229 395.399,493.05 403.333,488.625C411.266,484.2 420.497,481.989 431.022,481.989C442.618,481.989 452.61,484.848 461.002,490.57C469.393,496.292 474.885,504.949 477.479,516.545L468.554,512.883C472.216,503.576 478.622,496.1 487.776,490.455C496.931,484.812 507.609,481.989 519.816,481.989Z" style="fill-rule:nonzero;"/>
        <path d="M663.989,605.794C651.02,605.794 639.616,603.124 629.775,597.785C619.934,592.444 612.306,585.122 606.89,575.816C601.475,566.509 598.767,555.83 598.767,543.777C598.767,531.723 601.398,521.045 606.663,511.738C611.926,502.432 619.173,495.148 628.402,489.883C637.633,484.621 648.046,481.989 659.64,481.989C671.388,481.989 681.762,484.582 690.764,489.769C699.765,494.957 706.82,502.241 711.931,511.625C717.043,521.007 719.598,531.953 719.598,544.463C719.598,545.379 719.56,546.446 719.483,547.667C719.407,548.888 719.292,550.032 719.141,551.099L615.93,551.099L615.93,535.309L707.697,535.309L698.773,540.801C698.925,533.022 697.323,526.08 693.967,519.978C690.611,513.874 685.996,509.106 680.121,505.673C674.249,502.241 667.422,500.525 659.64,500.525C652.012,500.525 645.223,502.241 639.272,505.673C633.323,509.106 628.67,513.912 625.314,520.091C621.956,526.269 620.279,533.326 620.279,541.26L620.279,544.92C620.279,553.008 622.147,560.215 625.886,566.547C629.622,572.879 634.849,577.799 641.561,581.308C648.273,584.816 655.978,586.571 664.675,586.571C671.845,586.571 678.368,585.351 684.241,582.909C690.115,580.469 695.263,576.807 699.689,571.925L711.817,586.114C706.324,592.52 699.497,597.403 691.335,600.759C683.174,604.115 674.057,605.794 663.989,605.794Z" style="fill-rule:nonzero;"/>
        <path d="M1109.32,604.421L1109.32,578.79L1108.18,573.984L1108.18,530.276C1108.18,520.968 1105.47,513.761 1100.05,508.649C1094.64,503.537 1086.52,500.983 1075.68,500.983C1068.51,500.983 1061.49,502.164 1054.63,504.53C1047.76,506.895 1041.96,510.06 1037.24,514.027L1028.08,497.55C1034.34,492.515 1041.85,488.663 1050.62,485.994C1059.4,483.324 1068.59,481.989 1078.2,481.989C1094.83,481.989 1107.64,486.032 1116.64,494.117C1125.65,502.203 1130.15,514.56 1130.15,531.19L1130.15,604.421L1109.32,604.421ZM1069.5,605.794C1060.5,605.794 1052.61,604.268 1045.82,601.218C1039.03,598.166 1033.8,593.932 1030.14,588.516C1026.48,583.1 1024.65,576.96 1024.65,570.094C1024.65,563.533 1026.21,557.584 1029.34,552.245C1032.47,546.904 1037.58,542.633 1044.67,539.428C1051.77,536.225 1061.34,534.622 1073.39,534.622L1111.84,534.622L1111.84,550.413L1074.31,550.413C1063.32,550.413 1055.92,552.245 1052.11,555.905C1048.3,559.567 1046.39,563.992 1046.39,569.178C1046.39,575.13 1048.75,579.897 1053.49,583.481C1058.21,587.066 1064.77,588.86 1073.16,588.86C1081.4,588.86 1088.61,587.028 1094.79,583.368C1100.97,579.706 1105.43,574.367 1108.18,567.348L1112.53,582.452C1109.63,589.623 1104.52,595.305 1097.19,599.5C1089.87,603.696 1080.64,605.794 1069.5,605.794Z" style="fill-rule:nonzero;"/>
        <path d="M1235.19,605.794C1225.12,605.794 1215.93,603.467 1207.61,598.814C1199.3,594.161 1192.66,587.258 1187.7,578.103C1182.74,568.951 1180.27,557.507 1180.27,543.777C1180.27,530.046 1182.67,518.605 1187.47,509.45C1192.28,500.296 1198.84,493.431 1207.15,488.854C1215.47,484.276 1224.81,481.989 1235.19,481.989C1247.09,481.989 1257.62,484.582 1266.77,489.769C1275.92,494.957 1283.17,502.164 1288.51,511.395C1293.85,520.626 1296.52,531.419 1296.52,543.777C1296.52,556.134 1293.85,566.966 1288.51,576.273C1283.17,585.579 1275.92,592.826 1266.77,598.013C1257.62,603.201 1247.09,605.794 1235.19,605.794ZM1170.88,648.818L1170.88,483.133L1191.94,483.133L1191.94,515.859L1190.56,544.006L1192.85,572.154L1192.85,648.818L1170.88,648.818ZM1233.36,586.571C1241.14,586.571 1248.12,584.816 1254.3,581.308C1260.47,577.799 1265.36,572.802 1268.94,566.318C1272.53,559.835 1274.32,552.321 1274.32,543.777C1274.32,535.081 1272.53,527.568 1268.94,521.236C1265.36,514.904 1260.47,509.984 1254.3,506.475C1248.12,502.966 1241.14,501.212 1233.36,501.212C1225.73,501.212 1218.83,502.966 1212.65,506.475C1206.47,509.984 1201.59,514.904 1198,521.236C1194.41,527.568 1192.62,535.081 1192.62,543.777C1192.62,552.321 1194.41,559.835 1198,566.318C1201.59,572.802 1206.47,577.799 1212.65,581.308C1218.83,584.816 1225.73,586.571 1233.36,586.571Z" style="fill-rule:nonzero;"/>
        <path d="M1361.74,605.794C1351.67,605.794 1342.1,604.421 1333.02,601.675C1323.94,598.929 1316.81,595.573 1311.62,591.606L1320.78,574.214C1325.96,577.723 1332.37,580.696 1340,583.138C1347.63,585.579 1355.41,586.801 1363.34,586.801C1373.56,586.801 1380.92,585.351 1385.42,582.452C1389.93,579.553 1392.17,575.51 1392.17,570.324C1392.17,566.509 1390.8,563.533 1388.06,561.397C1385.31,559.263 1381.69,557.66 1377.19,556.591C1372.69,555.524 1367.69,554.57 1362.2,553.732C1356.7,552.893 1351.21,551.824 1345.72,550.527C1340.23,549.231 1335.19,547.401 1330.62,545.035C1326.04,542.671 1322.38,539.39 1319.63,535.194C1316.89,531 1315.51,525.393 1315.51,518.375C1315.51,511.051 1317.57,504.645 1321.69,499.152C1325.81,493.66 1331.65,489.426 1339.2,486.451C1346.75,483.475 1355.71,481.989 1366.09,481.989C1374.02,481.989 1382.07,482.942 1390.23,484.848C1398.39,486.757 1405.07,489.464 1410.26,492.974L1400.87,510.364C1395.38,506.704 1389.66,504.186 1383.71,502.813C1377.76,501.44 1371.81,500.753 1365.86,500.753C1356.25,500.753 1349.08,502.317 1344.35,505.446C1339.62,508.573 1337.25,512.577 1337.25,517.459C1337.25,521.578 1338.66,524.745 1341.49,526.956C1344.31,529.168 1347.97,530.886 1352.47,532.106C1356.97,533.326 1361.97,534.357 1367.46,535.194C1372.95,536.034 1378.44,537.103 1383.94,538.399C1389.43,539.696 1394.43,541.488 1398.93,543.777C1403.43,546.066 1407.09,549.269 1409.91,553.388C1412.74,557.507 1414.15,563 1414.15,569.865C1414.15,577.189 1412.01,583.519 1407.74,588.86C1403.47,594.199 1397.44,598.357 1389.66,601.332C1381.88,604.306 1372.57,605.794 1361.74,605.794Z" style="fill-rule:nonzero;"/>
        <path d="M1492.64,605.794C1482.27,605.794 1473.15,603.887 1465.29,600.072C1457.44,596.259 1451.33,590.423 1446.99,582.567C1442.64,574.709 1440.46,564.83 1440.46,552.931L1440.46,483.133L1462.43,483.133L1462.43,550.413C1462.43,562.313 1465.29,571.238 1471.01,577.189C1476.74,583.138 1484.78,586.114 1495.16,586.114C1502.79,586.114 1509.42,584.55 1515.07,581.421C1520.71,578.295 1525.06,573.718 1528.11,567.691C1531.16,561.665 1532.69,554.381 1532.69,545.836L1532.69,483.133L1554.66,483.133L1554.66,604.421L1533.83,604.421L1533.83,571.697L1537.26,580.392C1533.3,588.478 1527.35,594.733 1519.41,599.158C1511.48,603.581 1502.56,605.794 1492.64,605.794Z" style="fill-rule:nonzero;"/>
        <rect x="1596.54" y="434.617" width="21.969" height="169.804"/>
        <path d="M1714.39,605.794C1701.42,605.794 1690.02,603.124 1680.18,597.785C1670.34,592.444 1662.71,585.122 1657.29,575.816C1651.88,566.509 1649.17,555.83 1649.17,543.777C1649.17,531.723 1651.8,521.045 1657.07,511.738C1662.33,502.432 1669.58,495.148 1678.81,489.883C1688.04,484.621 1698.45,481.989 1710.04,481.989C1721.79,481.989 1732.16,484.582 1741.17,489.769C1750.17,494.957 1757.22,502.241 1762.34,511.625C1767.44,521.007 1770,531.953 1770,544.463C1770,545.379 1769.96,546.446 1769.89,547.667C1769.81,548.888 1769.7,550.032 1769.54,551.099L1666.33,551.099L1666.33,535.309L1758.1,535.309L1749.18,540.801C1749.33,533.022 1747.73,526.08 1744.37,519.978C1741.01,513.874 1736.4,509.106 1730.53,505.673C1724.65,502.241 1717.82,500.525 1710.04,500.525C1702.41,500.525 1695.62,502.241 1689.68,505.673C1683.73,509.106 1679.07,513.912 1675.72,520.091C1672.36,526.269 1670.68,533.326 1670.68,541.26L1670.68,544.92C1670.68,553.008 1672.55,560.215 1676.29,566.547C1680.03,572.879 1685.25,577.799 1691.97,581.308C1698.68,584.816 1706.38,586.571 1715.08,586.571C1722.25,586.571 1728.77,585.351 1734.64,582.909C1740.52,580.469 1745.67,576.807 1750.09,571.925L1762.22,586.114C1756.73,592.52 1749.9,597.403 1741.74,600.759C1733.58,604.115 1724.46,605.794 1714.39,605.794Z" style="fill-rule:nonzero;"/>
        <g opacity="0.1">
            <g>
                <path d="M888.424,448.93L898.553,469.185L878.297,469.185L888.424,448.93Z"/>
                <rect x="878.297" y="469.185" width="20.255" height="70.816"/>
            </g>
            <g>
                <path d="M946.042,573.267L928.163,574.638L938.291,557.096L946.042,573.267Z"/>
                <path d="M928.163,574.638L883.362,548.772L893.489,531.23L938.291,557.096L928.163,574.638Z"/>
            </g>
            <path d="M878.297,540L883.362,548.772L888.424,540L878.297,540Z"/>
        </g>
        <circle cx="888.424" cy="540" r="113.407" style="fill:none;stroke:black;stroke-opacity:0.1;stroke-width:21.85px;"/>
        <g>
            <path d="M976.721,611.141C955.926,636.912 924.087,653.407 888.424,653.407C825.833,653.407 775.019,602.591 775.019,540C775.019,477.411 825.833,426.595 888.424,426.595C917.098,426.595 943.299,437.259 963.276,454.832" style="fill:none;stroke:black;stroke-width:21.85px;stroke-linecap:butt;"/>
            <path d="M988.253,485.531L945.596,465.953L978.321,439.659L988.253,485.531Z"/>
        </g>
    </g>
</svg>
